<?xml version="1.0" encoding="utf-8"?>
<!-- Generator: Adobe Illustrator 23.0.3, SVG Export Plug-In . SVG Version: 6.00 Build 0)  -->
<svg version="1.1" id="Capa_1" xmlns="http://www.w3.org/2000/svg" xmlns:xlink="http://www.w3.org/1999/xlink" x="0px" y="0px"
	 viewBox="0 0 300 300" style="enable-background:new 0 0 300 300;" xml:space="preserve">
<style type="text/css">
	.st0{fill:#FFF280;}
</style>
<path class="st0" d="M240.36,138.56c0,23.47-18.8,42.5-42,42.5s-42-19.03-42-42.5s18.8-42.5,42-42.5S240.36,115.08,240.36,138.56z"
	/>
<path d="M69.9,106.18v-0.84l1.6-0.32c1.12-0.24,1.68-0.89,1.68-1.96V92.12c0-1.87,0-3.74,0-5.61c0-1.87-0.01-3.74-0.04-5.61h-3.17
	c-0.86,0-1.48,0.23-1.89,0.68c-0.4,0.45-0.8,1.1-1.2,1.92l-1.4,2.97h-1.12l0.2-6.77h23.03l0.2,6.77h-1.12l-1.4-2.97
	c-0.4-0.83-0.8-1.47-1.2-1.92c-0.4-0.45-1.03-0.68-1.89-0.68h-3.21v22.16c0,1.1,0.56,1.75,1.68,1.96l1.64,0.32v0.84H69.9z"/>
<path d="M89.52,106.18v-0.8l0.52-0.16c0.96-0.29,1.44-0.96,1.44-2V82.58c0-0.56-0.09-0.97-0.28-1.24c-0.19-0.29-0.55-0.51-1.08-0.64
	l-0.6-0.16v-0.76l6.78-1.72l0.64,0.36l-0.16,5.65v5.13c0.94-0.77,1.95-1.44,3.05-2c1.12-0.56,2.33-0.84,3.61-0.84
	c1.77,0,3.14,0.49,4.13,1.48c1.02,0.99,1.52,2.51,1.52,4.57v10.86c0,0.53,0.11,0.96,0.32,1.28c0.21,0.32,0.59,0.56,1.12,0.72
	l0.36,0.12v0.8h-9.15v-0.8l0.48-0.16c0.96-0.27,1.44-0.93,1.44-2V91.64c0-1.1-0.19-1.86-0.56-2.28c-0.37-0.43-1.03-0.64-1.97-0.64
	c-0.64,0-1.32,0.12-2.05,0.36c-0.7,0.24-1.43,0.64-2.21,1.2v13.02c0,0.53,0.11,0.96,0.32,1.28c0.21,0.32,0.57,0.55,1.08,0.68
	l0.36,0.12v0.8H89.52z"/>
<path d="M122.54,86.35c1.68,0,3.13,0.35,4.33,1.04c1.2,0.69,2.13,1.66,2.77,2.88c0.67,1.2,1,2.59,1,4.17c0,0.35-0.01,0.68-0.04,1
	c-0.03,0.29-0.08,0.57-0.16,0.84h-12.08c0.03,2.75,0.53,4.73,1.52,5.93c1.02,1.2,2.49,1.8,4.41,1.8c1.34,0,2.42-0.21,3.25-0.64
	c0.83-0.45,1.59-1.08,2.29-1.88l0.64,0.6c-0.8,1.47-1.9,2.62-3.29,3.45c-1.36,0.8-3,1.2-4.89,1.2c-1.9,0-3.57-0.4-5.01-1.2
	s-2.58-1.95-3.41-3.45c-0.8-1.52-1.2-3.34-1.2-5.45c0-2.19,0.47-4.05,1.4-5.57c0.96-1.52,2.19-2.68,3.69-3.49
	C119.29,86.76,120.88,86.35,122.54,86.35z M122.34,87.51c-0.78,0-1.46,0.23-2.05,0.68c-0.56,0.43-1.02,1.2-1.36,2.32
	c-0.32,1.1-0.51,2.64-0.56,4.65h7.18c0.29-2.7,0.19-4.65-0.32-5.85C124.72,88.11,123.76,87.51,122.34,87.51z"/>
<path d="M64.48,151.78v-0.84l0.64-0.2c0.56-0.21,0.94-0.49,1.12-0.84c0.21-0.35,0.32-0.81,0.32-1.4c0.03-1.52,0.04-3.05,0.04-4.57
	c0-1.55,0-3.1,0-4.65v-1.44c0-1.55-0.01-3.09-0.04-4.61c0-1.55,0-3.1,0-4.65c0-0.64-0.09-1.12-0.28-1.44
	c-0.19-0.35-0.58-0.61-1.16-0.8l-0.64-0.2v-0.84H75.8c3.21,0,5.54,0.6,6.98,1.8c1.44,1.18,2.17,2.67,2.17,4.49
	c0,1.39-0.51,2.64-1.52,3.77c-1.02,1.1-2.79,1.88-5.34,2.36c2.94,0.32,5.07,1.08,6.38,2.28c1.31,1.2,1.97,2.67,1.97,4.41
	c0,0.85-0.19,1.72-0.56,2.6c-0.37,0.85-1.02,1.64-1.93,2.36c-0.88,0.72-2.09,1.31-3.61,1.76c-1.52,0.43-3.45,0.64-5.78,0.64H64.48z
	 M72.31,137.43h1.89c1.82,0,3.13-0.4,3.93-1.2c0.83-0.83,1.24-2.23,1.24-4.21c0-2.06-0.37-3.5-1.12-4.33
	c-0.75-0.83-1.93-1.24-3.53-1.24h-2.41V137.43z M72.31,150.62h2.21c2.01,0,3.5-0.49,4.49-1.48c0.99-0.99,1.48-2.58,1.48-4.77
	c0-2.11-0.48-3.59-1.44-4.45c-0.94-0.88-2.49-1.32-4.65-1.32h-2.09V150.62z"/>
<path d="M88.22,151.78v-0.76l0.6-0.2c0.53-0.13,0.9-0.36,1.08-0.68c0.21-0.32,0.32-0.75,0.32-1.28v-11.74
	c-0.03-0.59-0.13-1.03-0.32-1.32c-0.19-0.32-0.55-0.53-1.08-0.64l-0.6-0.16v-0.72l6.54-2.32l0.48,0.44l0.36,3.53v0.28
	c0.4-0.75,0.91-1.44,1.52-2.08c0.62-0.64,1.28-1.16,2.01-1.56c0.72-0.4,1.44-0.6,2.17-0.6c1.02,0,1.78,0.27,2.29,0.8
	c0.51,0.53,0.76,1.22,0.76,2.04c0,0.91-0.25,1.6-0.76,2.08c-0.51,0.45-1.12,0.68-1.85,0.68c-1.07,0-1.99-0.48-2.77-1.44l-0.08-0.08
	c-0.27-0.32-0.57-0.49-0.92-0.52c-0.32-0.05-0.64,0.11-0.96,0.48c-0.27,0.27-0.52,0.59-0.76,0.96c-0.21,0.35-0.41,0.76-0.6,1.24
	v10.5c0,0.51,0.11,0.93,0.32,1.28c0.21,0.32,0.57,0.55,1.08,0.68l1.2,0.36v0.76H88.22z"/>
<path d="M115.1,131.94c1.68,0,3.13,0.35,4.33,1.04c1.2,0.69,2.13,1.66,2.77,2.88c0.67,1.2,1,2.59,1,4.17c0,0.35-0.01,0.68-0.04,1
	c-0.03,0.29-0.08,0.57-0.16,0.84h-12.08c0.03,2.75,0.53,4.73,1.52,5.93c1.02,1.2,2.49,1.8,4.41,1.8c1.34,0,2.42-0.21,3.25-0.64
	c0.83-0.45,1.59-1.08,2.29-1.88l0.64,0.6c-0.8,1.47-1.9,2.62-3.29,3.45c-1.36,0.8-3,1.2-4.89,1.2c-1.9,0-3.57-0.4-5.01-1.2
	c-1.44-0.8-2.58-1.95-3.41-3.45c-0.8-1.52-1.2-3.34-1.2-5.45c0-2.19,0.47-4.05,1.4-5.57c0.96-1.52,2.19-2.68,3.69-3.49
	C111.85,132.36,113.44,131.94,115.1,131.94z M114.9,133.11c-0.78,0-1.46,0.23-2.05,0.68c-0.56,0.43-1.02,1.2-1.36,2.32
	c-0.32,1.1-0.51,2.64-0.56,4.65h7.18c0.29-2.7,0.19-4.65-0.32-5.85C117.28,133.71,116.31,133.11,114.9,133.11z"/>
<path d="M130.86,152.34c-1.52,0-2.82-0.43-3.89-1.28c-1.04-0.88-1.56-2.14-1.56-3.77c0-1.28,0.62-2.46,1.85-3.53
	c1.26-1.1,3.22-1.9,5.9-2.4c0.45-0.11,0.98-0.2,1.56-0.28c0.62-0.11,1.22-0.21,1.81-0.32v-2.84c0-1.82-0.23-3.07-0.68-3.77
	c-0.45-0.69-1.18-1.04-2.17-1.04h-0.12c-0.62,0-1.11,0.2-1.48,0.6c-0.35,0.37-0.57,1-0.68,1.88l-0.12,0.52
	c-0.08,1.07-0.36,1.86-0.84,2.36c-0.48,0.48-1.08,0.72-1.81,0.72c-0.67,0-1.23-0.2-1.68-0.6c-0.43-0.43-0.64-0.97-0.64-1.64
	c0-1.1,0.37-2.02,1.12-2.76c0.75-0.75,1.74-1.31,2.97-1.68c1.26-0.37,2.61-0.56,4.05-0.56c2.38,0,4.2,0.57,5.46,1.72
	c1.26,1.15,1.89,3.02,1.89,5.61v8.94c0,1.15,0.55,1.72,1.64,1.72h0.92l0.4,0.44c-0.48,0.61-1.02,1.08-1.6,1.4
	c-0.59,0.35-1.39,0.52-2.41,0.52c-1.15,0-2.07-0.27-2.77-0.8c-0.67-0.56-1.11-1.3-1.32-2.2c-0.86,0.91-1.7,1.64-2.53,2.2
	C133.28,152.06,132.2,152.34,130.86,152.34z M133.19,149.78c0.53,0,1.04-0.12,1.52-0.36c0.48-0.24,1.08-0.64,1.81-1.2v-6.41
	c-0.7,0.11-1.4,0.24-2.13,0.4c-1.15,0.27-2.09,0.76-2.81,1.48c-0.7,0.72-1.04,1.7-1.04,2.92c0,1.07,0.24,1.87,0.72,2.4
	C131.77,149.52,132.42,149.78,133.19,149.78z"/>
<path d="M145.73,151.78v-0.76l0.6-0.2c0.91-0.27,1.36-0.92,1.36-1.96V128.1c0-0.53-0.11-0.93-0.32-1.2
	c-0.21-0.29-0.59-0.51-1.12-0.64l-0.52-0.16v-0.76l7.02-1.68l0.52,0.36l-0.16,5.65v19.19c0,1.07,0.45,1.74,1.36,2l0.56,0.16v0.76
	H145.73z M160.42,151.78l-7.3-10.02l7.14-6.57c0.35-0.29,0.55-0.61,0.6-0.96c0.05-0.37-0.17-0.63-0.68-0.76l-0.64-0.16v-0.76h6.26
	v0.76l-1.16,0.28c-0.59,0.16-1.07,0.39-1.44,0.68c-0.37,0.27-0.82,0.63-1.32,1.08l-4.45,4.13l6.86,9.34c0.43,0.56,0.82,1,1.16,1.32
	c0.35,0.29,0.82,0.55,1.4,0.76l0.4,0.12v0.76H160.42z"/>
<path d="M168.65,151.78v-0.76l0.6-0.16c1.07-0.29,1.62-0.95,1.65-1.96c0-0.93,0-1.86,0-2.76c0.03-0.93,0.04-1.86,0.04-2.76v-9.58
	h-2.29v-0.88l0.88-0.16c0.54-0.08,0.92-0.27,1.16-0.56c0.24-0.32,0.42-0.76,0.52-1.32c0.29-1.07,0.68-1.99,1.16-2.76
	c0.51-0.8,1.11-1.54,1.81-2.2c0.99-0.96,2.05-1.63,3.17-2c1.12-0.37,2.22-0.56,3.29-0.56c1.04,0,1.99,0.21,2.85,0.64
	c0.88,0.4,1.32,1.1,1.32,2.08c0,0.69-0.21,1.26-0.64,1.68c-0.4,0.4-0.99,0.6-1.77,0.6c-1.23,0-2.31-0.72-3.25-2.16l-0.48-0.56
	c-0.32-0.4-0.64-0.56-0.96-0.48c-0.32,0.08-0.55,0.35-0.68,0.8c-0.21,0.85-0.39,1.86-0.52,3.01c-0.11,1.15-0.17,2.35-0.2,3.61h4.61
	v1.24h-4.61v9.58c0,0.91,0,1.82,0,2.72c0.03,0.88,0.04,1.78,0.04,2.68c0,1.07,0.54,1.72,1.6,1.96l1.04,0.28v0.76H168.65z"/>
<path d="M188.1,152.34c-1.53,0-2.82-0.43-3.89-1.28c-1.04-0.88-1.56-2.14-1.56-3.77c0-1.28,0.62-2.46,1.85-3.53
	c1.26-1.1,3.22-1.9,5.9-2.4c0.46-0.11,0.98-0.2,1.57-0.28c0.62-0.11,1.22-0.21,1.81-0.32v-2.84c0-1.82-0.23-3.07-0.68-3.77
	c-0.45-0.69-1.18-1.04-2.17-1.04h-0.12c-0.62,0-1.11,0.2-1.49,0.6c-0.35,0.37-0.57,1-0.68,1.88l-0.12,0.52
	c-0.08,1.07-0.36,1.86-0.84,2.36c-0.48,0.48-1.08,0.72-1.8,0.72c-0.67,0-1.23-0.2-1.68-0.6c-0.43-0.43-0.64-0.97-0.64-1.64
	c0-1.1,0.38-2.02,1.12-2.76c0.75-0.75,1.74-1.31,2.97-1.68c1.26-0.37,2.61-0.56,4.05-0.56c2.38,0,4.2,0.57,5.46,1.72
	s1.88,3.02,1.88,5.61v8.94c0,1.15,0.55,1.72,1.65,1.72h0.92l0.4,0.44c-0.48,0.61-1.02,1.08-1.6,1.4c-0.59,0.35-1.39,0.52-2.41,0.52
	c-1.15,0-2.07-0.27-2.77-0.8c-0.67-0.56-1.11-1.3-1.32-2.2c-0.86,0.91-1.7,1.64-2.53,2.2C190.52,152.06,189.44,152.34,188.1,152.34z
	 M190.43,149.78c0.53,0,1.04-0.12,1.52-0.36c0.48-0.24,1.08-0.64,1.81-1.2v-6.41c-0.7,0.11-1.4,0.24-2.13,0.4
	c-1.15,0.27-2.09,0.76-2.81,1.48c-0.7,0.72-1.04,1.7-1.04,2.92c0,1.07,0.24,1.87,0.72,2.4
	C189.01,149.52,189.65,149.78,190.43,149.78z"/>
<path d="M209.83,152.34c-1.28,0-2.45-0.15-3.49-0.44c-1.02-0.27-1.99-0.65-2.93-1.16v-4.73h1.08l1.2,2.28
	c0.51,0.99,1.08,1.72,1.72,2.2c0.67,0.48,1.51,0.72,2.53,0.72c1.26,0,2.26-0.27,3.01-0.8c0.75-0.56,1.12-1.31,1.12-2.24
	c0-0.85-0.28-1.55-0.84-2.08c-0.56-0.53-1.57-1.03-3.01-1.48l-1.76-0.56c-1.58-0.48-2.83-1.2-3.77-2.16
	c-0.91-0.99-1.36-2.22-1.36-3.69c0-1.15,0.31-2.19,0.92-3.13c0.61-0.96,1.51-1.72,2.69-2.28c1.18-0.56,2.61-0.84,4.29-0.84
	c1.1,0,2.1,0.13,3.01,0.4c0.94,0.24,1.85,0.59,2.73,1.04l-0.24,4.29h-1.04l-1.24-2.28c-0.43-0.85-0.87-1.44-1.32-1.76
	c-0.43-0.35-1.1-0.52-2-0.52c-0.96,0-1.82,0.25-2.57,0.76c-0.72,0.48-1.08,1.16-1.08,2.04c0,0.83,0.31,1.51,0.92,2.04
	c0.62,0.51,1.6,0.99,2.97,1.44l1.73,0.52c1.95,0.61,3.34,1.43,4.17,2.44s1.24,2.23,1.24,3.65c0,1.9-0.76,3.43-2.29,4.61
	C214.71,151.77,212.59,152.34,209.83,152.34z"/>
<path d="M227.87,152.34c-1.66,0-2.97-0.4-3.93-1.2c-0.94-0.83-1.4-2.16-1.4-4.01c0-0.64,0-1.24,0-1.8c0.03-0.59,0.04-1.27,0.04-2.04
	v-9.5h-2.85v-0.88l1.08-0.16c0.78-0.13,1.43-0.37,1.97-0.72c0.56-0.35,1.07-0.83,1.53-1.44l2.61-3.61h1.2l-0.12,5.57h4.57v1.24
	h-4.61v13.66c0,0.96,0.2,1.68,0.6,2.16c0.43,0.48,0.95,0.72,1.57,0.72c0.53,0,1.02-0.12,1.44-0.36c0.43-0.27,0.86-0.61,1.28-1.04
	l0.52,0.6c-0.51,0.88-1.22,1.58-2.13,2.08C230.33,152.1,229.2,152.34,227.87,152.34z"/>
<path d="M78.2,198.06c-2.59,0-4.93-0.53-7.02-1.6c-2.09-1.07-3.74-2.64-4.97-4.73c-1.2-2.08-1.81-4.62-1.81-7.61
	c0-2.24,0.36-4.23,1.08-5.97c0.75-1.74,1.77-3.19,3.05-4.37c1.31-1.2,2.81-2.1,4.49-2.68c1.68-0.61,3.48-0.92,5.38-0.92
	c1.47,0,2.85,0.17,4.13,0.52c1.28,0.32,2.51,0.8,3.69,1.44l0.16,5.25H85.3l-1.68-3.17c-0.27-0.53-0.56-1.02-0.88-1.44
	c-0.29-0.43-0.68-0.73-1.16-0.92c-0.67-0.32-1.46-0.48-2.37-0.48c-1.58,0-3.02,0.4-4.33,1.2c-1.28,0.8-2.31,2.14-3.09,4.01
	c-0.78,1.84-1.16,4.37-1.16,7.57c0,3.18,0.36,5.7,1.08,7.57c0.75,1.87,1.75,3.21,3.01,4.01c1.26,0.77,2.67,1.16,4.25,1.16
	c0.72,0,1.31-0.05,1.77-0.16c0.45-0.11,0.91-0.25,1.36-0.44c0.53-0.21,0.95-0.52,1.24-0.92c0.29-0.43,0.55-0.91,0.76-1.44l1.52-3.65
	h1.08l-0.16,5.77c-1.15,0.64-2.42,1.13-3.81,1.48C81.34,197.88,79.83,198.06,78.2,198.06z"/>
<path d="M88.65,197.37v-0.76l0.6-0.16c0.88-0.29,1.32-0.96,1.32-2c0-0.91,0-1.82,0-2.72c0.03-0.93,0.04-1.86,0.04-2.77v-15.23
	c0-0.56-0.09-0.97-0.28-1.24c-0.19-0.29-0.55-0.51-1.08-0.64l-0.6-0.16v-0.76l7.02-1.68l0.52,0.36l-0.16,5.65v19.19
	c0.03,0.53,0.13,0.98,0.32,1.32c0.21,0.32,0.57,0.55,1.08,0.68l0.56,0.16v0.76H88.65z"/>
<path d="M106.8,197.94c-1.04,0-1.99-0.19-2.85-0.56c-0.86-0.4-1.54-1.04-2.05-1.92c-0.48-0.91-0.71-2.1-0.68-3.57l0.12-10.06
	c0-0.59-0.09-1.01-0.28-1.28c-0.19-0.27-0.52-0.45-1-0.56l-0.48-0.16v-0.72l6.86-1.32l0.44,0.44l-0.2,5.65v9.1
	c0,0.91,0.24,1.58,0.72,2c0.51,0.4,1.14,0.6,1.89,0.6c0.78,0,1.47-0.11,2.09-0.32c0.64-0.24,1.3-0.59,1.97-1.04l0.12-12.34
	c0-0.61-0.09-1.04-0.28-1.28c-0.16-0.24-0.48-0.43-0.96-0.56l-0.44-0.12v-0.72l6.7-1.4l0.44,0.44l-0.12,5.65v10.5
	c0,0.56,0.07,1.02,0.2,1.36c0.16,0.32,0.49,0.56,1,0.72l0.52,0.16v0.76l-6.78,0.4l-0.36-2.52c-0.91,0.77-1.9,1.42-2.97,1.92
	C109.34,197.68,108.14,197.94,106.8,197.94z"/>
<path d="M128.81,197.9l-6.58-0.52v-0.76l0.4-0.08c1.04-0.24,1.56-0.91,1.56-2v-20.84c0-0.53-0.11-0.95-0.32-1.24
	c-0.19-0.29-0.55-0.51-1.08-0.64l-0.52-0.12v-0.72l6.86-1.72l0.52,0.36l-0.16,5.65v4.21c1.9-1.28,3.94-1.92,6.14-1.92
	c2.25,0,4.11,0.83,5.58,2.48c1.47,1.63,2.21,4.15,2.21,7.57c0,2.27-0.37,4.18-1.12,5.73c-0.75,1.52-1.75,2.67-3.01,3.45
	c-1.26,0.77-2.65,1.16-4.17,1.16c-1.02,0-2.03-0.13-3.05-0.4c-0.99-0.27-1.87-0.68-2.65-1.24L128.81,197.9z M133.22,196.17
	c0.88,0,1.66-0.25,2.33-0.76c0.67-0.51,1.19-1.38,1.56-2.6c0.37-1.23,0.56-2.91,0.56-5.05s-0.17-3.81-0.52-5.01
	c-0.35-1.2-0.86-2.04-1.52-2.52c-0.64-0.48-1.42-0.72-2.33-0.72c-1.2,0-2.43,0.35-3.69,1.04v14.63
	C130.71,195.84,131.91,196.17,133.22,196.17z"/>
</svg>
